<?xml version="1.0" encoding="UTF-8" standalone="no"?>
<svg
   xmlns:dc="http://purl.org/dc/elements/1.1/"
   xmlns:cc="http://creativecommons.org/ns#"
   xmlns:rdf="http://www.w3.org/1999/02/22-rdf-syntax-ns#"
   xmlns:svg="http://www.w3.org/2000/svg"
   xmlns="http://www.w3.org/2000/svg"
   xmlns:sodipodi="http://sodipodi.sourceforge.net/DTD/sodipodi-0.dtd"
   xmlns:inkscape="http://www.inkscape.org/namespaces/inkscape"
   width="229.94836mm"
   height="84.623154mm"
   viewBox="0 0 814.77767 299.84582"
   id="svg2"
   version="1.1"
   inkscape:version="1.0.2 (1.0.2+r75+1)"
   sodipodi:docname="js_object2.svg"
   inkscape:export-filename="../../home/michael/Dropbox/Courses/JS_2019/images/js_object2.html"
   inkscape:export-xdpi="300"
   inkscape:export-ydpi="300">
  <defs
     id="defs4" />
  <sodipodi:namedview
     id="base"
     pagecolor="#ffffff"
     bordercolor="#666666"
     borderopacity="1.0"
     inkscape:pageopacity="0.0"
     inkscape:pageshadow="2"
     inkscape:zoom="1.1318679"
     inkscape:cx="434.496"
     inkscape:cy="159.91778"
     inkscape:document-units="px"
     inkscape:current-layer="layer1"
     showgrid="false"
     inkscape:window-width="1848"
     inkscape:window-height="1016"
     inkscape:window-x="1992"
     inkscape:window-y="27"
     inkscape:window-maximized="1"
     fit-margin-top="10"
     fit-margin-left="10"
     fit-margin-right="10"
     fit-margin-bottom="10"
     inkscape:document-rotation="0"
     lock-margins="true" />
  <metadata
     id="metadata7">
    <rdf:RDF>
      <cc:Work
         rdf:about="">
        <dc:format>image/svg+xml</dc:format>
        <dc:type
           rdf:resource="http://purl.org/dc/dcmitype/StillImage" />
        <dc:title></dc:title>
      </cc:Work>
    </rdf:RDF>
  </metadata>
  <g
     inkscape:label="Layer 1"
     inkscape:groupmode="layer"
     id="layer1"
     transform="translate(-11.341823,19.622641)">
    <text
       xml:space="preserve"
       style="font-style:normal;font-weight:normal;line-height:0%;font-family:sans-serif;letter-spacing:0px;word-spacing:0px;fill:#000000;fill-opacity:1;stroke:none;stroke-width:1px;stroke-linecap:butt;stroke-linejoin:miter;stroke-opacity:1"
       x="107.27724"
       y="38.603397"
       id="text4227"><tspan
         sodipodi:role="line"
         id="tspan4229"
         x="107.27724"
         y="38.603397"
         style="font-size:30px;line-height:1.25;font-family:sans-serif">Object</tspan></text>
    <text
       id="text4231"
       y="38.603397"
       x="382.47934"
       style="font-style:normal;font-weight:normal;line-height:0%;font-family:sans-serif;letter-spacing:0px;word-spacing:0px;fill:#000000;fill-opacity:1;stroke:none;stroke-width:1px;stroke-linecap:butt;stroke-linejoin:miter;stroke-opacity:1"
       xml:space="preserve"><tspan
         y="38.603397"
         x="382.47934"
         id="tspan4233"
         sodipodi:role="line"
         style="font-size:30px;line-height:1.25;font-family:sans-serif">Properties</tspan></text>
    <text
       xml:space="preserve"
       style="font-style:normal;font-weight:normal;line-height:0%;font-family:sans-serif;letter-spacing:0px;word-spacing:0px;fill:#000000;fill-opacity:1;stroke:none;stroke-width:1px;stroke-linecap:butt;stroke-linejoin:miter;stroke-opacity:1"
       x="651.42859"
       y="38.603397"
       id="text4235"><tspan
         sodipodi:role="line"
         id="tspan4237"
         x="651.42859"
         y="38.603397"
         style="font-size:30px;line-height:1.25;font-family:sans-serif">Methods</tspan></text>
    <text
       xml:space="preserve"
       style="font-style:normal;font-weight:normal;line-height:0%;font-family:sans-serif;letter-spacing:0px;word-spacing:0px;fill:#000000;fill-opacity:1;stroke:none;stroke-width:1px;stroke-linecap:butt;stroke-linejoin:miter;stroke-opacity:1"
       x="326.39536"
       y="87.277245"
       id="text4239"><tspan
         sodipodi:role="line"
         id="tspan4241"
         x="326.39536"
         y="87.277245"
         style="font-style:normal;font-variant:normal;font-weight:normal;font-stretch:normal;font-size:20px;line-height:1.25;font-family:monospace;-inkscape-font-specification:monospace">car.name=&quot;Mitsubishi&quot;</tspan><tspan
         sodipodi:role="line"
         x="326.39536"
         y="112.27724"
         id="tspan4243"
         style="font-style:normal;font-variant:normal;font-weight:normal;font-stretch:normal;font-size:20px;line-height:1.25;font-family:monospace;-inkscape-font-specification:monospace">car.model=&quot;Super Lancer&quot;</tspan><tspan
         sodipodi:role="line"
         x="326.39536"
         y="137.27725"
         id="tspan4245"
         style="font-style:normal;font-variant:normal;font-weight:normal;font-stretch:normal;font-size:20px;line-height:1.25;font-family:monospace;-inkscape-font-specification:monospace">car.weight=1300</tspan><tspan
         sodipodi:role="line"
         x="326.39536"
         y="162.27725"
         style="font-style:normal;font-variant:normal;font-weight:normal;font-stretch:normal;font-size:20px;line-height:1.25;font-family:monospace;-inkscape-font-specification:monospace"
         id="tspan862">car.year=1996</tspan><tspan
         sodipodi:role="line"
         x="326.39536"
         y="187.27725"
         id="tspan4247"
         style="font-style:normal;font-variant:normal;font-weight:normal;font-stretch:normal;font-size:20px;line-height:1.25;font-family:monospace;-inkscape-font-specification:monospace">car.color=&quot;grey&quot;</tspan></text>
    <text
       id="text4249"
       y="87.277245"
       x="662.39539"
       style="font-style:normal;font-weight:normal;line-height:0%;font-family:sans-serif;letter-spacing:0px;word-spacing:0px;fill:#000000;fill-opacity:1;stroke:none;stroke-width:1px;stroke-linecap:butt;stroke-linejoin:miter;stroke-opacity:1"
       xml:space="preserve"><tspan
         id="tspan4257"
         y="87.277245"
         x="662.39539"
         sodipodi:role="line"
         style="font-style:normal;font-variant:normal;font-weight:normal;font-stretch:normal;font-size:20px;line-height:1.25;font-family:monospace;-inkscape-font-specification:monospace">car.start()</tspan><tspan
         y="112.27724"
         x="662.39539"
         sodipodi:role="line"
         id="tspan4268"
         style="font-style:normal;font-variant:normal;font-weight:normal;font-stretch:normal;font-size:20px;line-height:1.25;font-family:monospace;-inkscape-font-specification:monospace">car.drive()</tspan><tspan
         y="137.27725"
         x="662.39539"
         sodipodi:role="line"
         id="tspan4270"
         style="font-style:normal;font-variant:normal;font-weight:normal;font-stretch:normal;font-size:20px;line-height:1.25;font-family:monospace;-inkscape-font-specification:monospace">car.break()</tspan><tspan
         y="162.27725"
         x="662.39539"
         sodipodi:role="line"
         id="tspan4272"
         style="font-style:normal;font-variant:normal;font-weight:normal;font-stretch:normal;font-size:20px;line-height:1.25;font-family:monospace;-inkscape-font-specification:monospace">car.honk()</tspan></text>
    <g
       id="g4334">
      <g
         transform="matrix(0.49467639,0,0,0.49467639,46.774893,46.840886)"
         id="g4185">
        <g
           id="g4137">
          <path
             inkscape:connector-curvature="0"
             d="m 237.598,327.53 c -5.549,-3.204 -15.284,0.668 -23.14,14.275 v 0 c -7.855,13.606 -6.345,23.971 -0.792,27.177 0.938,0.541 2.37,1.106 4.264,1.106 2.209,0 5.045,-0.769 8.454,-3.24 3.784,-2.742 7.485,-7.054 10.422,-12.141 2.938,-5.087 4.82,-10.448 5.304,-15.096 0.807,-7.778 -2.481,-10.907 -4.512,-12.081 z m -3.446,11.254 c -0.364,3.503 -1.922,7.849 -4.274,11.923 -2.352,4.074 -5.337,7.597 -8.188,9.664 -2.511,1.82 -3.874,1.768 -4.023,1.683 -1.057,-0.61 -1.42,-7.345 3.72,-16.249 5.141,-8.905 11.158,-11.957 12.212,-11.346 0.147,0.085 0.873,1.243 0.553,4.325 z"
             id="path4139" />
          <path
             inkscape:connector-curvature="0"
             d="m 404.265,230.634 c -2.031,-1.174 -6.387,-2.456 -12.718,2.133 -3.784,2.742 -7.485,7.054 -10.422,12.141 -2.938,5.086 -4.821,10.448 -5.304,15.096 -0.809,7.778 2.479,10.908 4.511,12.081 0.938,0.542 2.37,1.106 4.264,1.106 2.209,0 5.045,-0.769 8.454,-3.24 3.784,-2.742 7.485,-7.054 10.422,-12.141 2.938,-5.086 4.821,-10.448 5.304,-15.096 0.808,-7.778 -2.48,-10.907 -4.511,-12.08 z m -3.446,11.254 c -0.363,3.502 -1.922,7.848 -4.274,11.923 -2.352,4.075 -5.337,7.597 -8.188,9.664 -2.509,1.818 -3.875,1.766 -4.023,1.683 -0.147,-0.085 -0.874,-1.244 -0.554,-4.326 0.363,-3.502 1.922,-7.848 4.274,-11.922 0,0 0,0 0,0 2.353,-4.075 5.337,-7.597 8.188,-9.664 2.015,-1.459 3.292,-1.715 3.794,-1.715 0.124,0 0.2,0.015 0.229,0.032 0.148,0.084 0.874,1.242 0.554,4.325 z"
             id="path4141" />
          <polygon
             points="36.017,301.279 36.017,289.709 15.017,277.489 15.017,289.059 "
             id="polygon4143" />
          <polygon
             points="108.017,344.059 129.017,356.279 129.017,344.709 108.017,332.489 "
             id="polygon4145" />
          <path
             inkscape:connector-curvature="0"
             d="m 442.957,162.511 -37.96,-38.423 c -0.329,-0.396 -0.732,-0.729 -1.188,-0.974 -0.215,-0.116 -135.543,-78.621 -135.543,-78.621 -1.237,-0.719 -2.763,-0.722 -4.004,-0.008 L 114.98,130.388 c -0.775,0.446 -1.378,1.139 -1.713,1.968 L 88.075,194.669 1.289,256.668 C 0.467,257.425 0,258.491 0,259.609 v 58.01 c 0,1.429 0.763,2.75 2,3.464 l 136.05,78.54 c 0.619,0.357 1.31,0.536 2,0.536 0.69,0 2.32,-0.547 2.32,-0.547 l 47.467,-27.772 c 1.58,8.166 5.65,14.44 11.794,17.987 3.47,2.004 7.361,3.001 11.508,3.001 4.979,0 10.328,-1.439 15.753,-4.303 9.341,-4.931 17.926,-13.606 24.174,-24.429 6.715,-11.631 9.702,-23.735 9.101,-34.049 l 94.441,-54.619 c 1.646,7.928 5.67,14.027 11.69,17.502 3.47,2.004 7.36,3.001 11.508,3.001 4.979,0 10.328,-1.439 15.753,-4.303 9.341,-4.931 17.926,-13.606 24.174,-24.429 6.652,-11.523 9.642,-23.508 9.112,-33.759 l 13.229,-7.449 c 1.259,-0.708 2.037,-2.041 2.037,-3.485 v -57.183 c 0,-1.053 -0.415,-2.063 -1.154,-2.812 z m -187.109,53.01 61.933,-35.724 v 39.354 l -82.752,47.862 z m 69.933,-40.339 61.53,-35.492 9.066,34.003 -70.596,40.831 z m 77.77,-5.638 -9.064,-33.993 6.745,-3.891 24.661,24.962 z M 266.247,52.572 393.845,126.686 252.603,208.157 124.448,134.17 Z m -147.49,87.549 128.866,74.401 -22.499,55.645 -128.835,-74.472 z m -27.346,61.995 128.435,74.242 -80.017,57.046 -128.08,-74.487 z m 97.699,160.88 -45.06,26.364 v -12.017 l 46.822,-27.082 c -1.094,4.317 -1.693,8.603 -1.762,12.735 z m -69.663,5.098 v 11.553 L 24.36,324.754 V 312.795 Z M 8,294.026 v -28.034 l 128.05,74.468 v 28.034 z m 0,9.254 8.36,4.862 v 11.994 L 8,315.31 Z m 119.447,80.985 v -11.519 l 8.603,5.003 v 11.482 z m 118.691,-24.169 c -5.505,9.534 -12.956,17.118 -20.981,21.354 -7.423,3.918 -14.357,4.433 -19.526,1.448 -5.169,-2.984 -8.19,-9.247 -8.508,-17.634 -0.344,-9.068 2.499,-19.313 8.003,-28.848 v 0 c 5.504,-9.535 12.956,-17.119 20.98,-21.354 4.239,-2.238 8.318,-3.365 12,-3.365 2.767,0 5.31,0.637 7.526,1.917 11.116,6.417 11.347,27.703 0.506,46.482 z m 166.667,-96.897 c -5.505,9.534 -12.956,17.118 -20.98,21.354 -7.424,3.918 -14.358,4.433 -19.526,1.448 -5.169,-2.984 -8.19,-9.247 -8.509,-17.634 -0.344,-9.068 2.498,-19.313 8.003,-28.848 5.505,-9.535 12.956,-17.119 20.98,-21.355 4.239,-2.237 8.318,-3.365 12.001,-3.365 2.766,0 5.309,0.636 7.525,1.917 11.116,6.418 11.347,27.704 0.506,46.483 z m 23.306,-43.032 -8.616,4.852 c -1.879,-6.641 -5.621,-12.011 -11.196,-15.23 -7.636,-4.409 -17.317,-3.946 -27.261,1.302 -9.341,4.931 -17.926,13.607 -24.174,24.43 -5.858,10.146 -9.055,21.126 -9.102,31.155 l -95.018,54.953 c -1.905,-6.508 -5.619,-11.77 -11.113,-14.941 -7.636,-4.41 -17.317,-3.946 -27.261,1.301 -9.34,4.931 -17.926,13.607 -24.174,24.43 -1.181,2.045 -2.253,4.124 -3.213,6.222 L 144.05,368.1 v -27.881 l 85.054,-60.637 202.599,-117.079 4.407,4.461 v 53.203 z"
             id="path4147" />
        </g>
        <g
           id="g4149" />
        <g
           id="g4151" />
        <g
           id="g4153" />
        <g
           id="g4155" />
        <g
           id="g4157" />
        <g
           id="g4159" />
        <g
           id="g4161" />
        <g
           id="g4163" />
        <g
           id="g4165" />
        <g
           id="g4167" />
        <g
           id="g4169" />
        <g
           id="g4171" />
        <g
           id="g4173" />
        <g
           id="g4175" />
        <g
           id="g4177" />
      </g>
      <path
         transform="translate(11.341822,-19.622642)"
         inkscape:connector-curvature="0"
         id="path4274"
         d="M 73.160964,213.12536 C 55.952446,203.11713 41.866446,194.75405 41.858741,194.54074 c -0.0164,-0.45409 38.186171,-27.79899 38.836969,-27.79899 1.109277,0 63.24124,36.40481 62.8115,36.80297 -0.62339,0.57757 -35.94476,25.7877 -37.72213,26.92364 -1.26365,0.80761 -3.02819,-0.13043 -32.624116,-17.343 z"
         style="opacity:1;fill:#808080;fill-opacity:0.439216;fill-rule:nonzero;stroke:none;stroke-width:0.771429;stroke-miterlimit:4;stroke-dasharray:none;stroke-opacity:1" />
      <path
         transform="translate(11.341822,-19.622642)"
         inkscape:connector-curvature="0"
         id="path4304"
         d="m 128.4927,150.99534 c -25.76082,-14.87619 -31.317703,-18.25339 -30.649154,-18.62707 0.449133,-0.25104 16.130954,-9.26932 34.848494,-20.04062 18.71755,-10.7713 34.2335,-19.584183 34.47991,-19.584183 0.37675,0 59.83244,34.329703 62.19981,35.914153 0.67699,0.4531 -4.33014,3.48776 -33.54346,20.32962 -18.88658,10.88836 -34.68362,19.88291 -35.10454,19.98789 -0.43186,0.1077 -14.47476,-7.72599 -32.23106,-17.97979 z"
         style="opacity:1;fill:#808080;fill-opacity:0.439216;fill-rule:nonzero;stroke:none;stroke-width:1.3;stroke-miterlimit:4;stroke-dasharray:none;stroke-opacity:1" />
      <path
         transform="translate(11.341822,-19.622642)"
         inkscape:connector-curvature="0"
         id="path4306"
         d="m 106.67441,241.52911 0.009,-6.74739 20.93663,-14.92753 20.93663,-14.92753 49.95223,-28.87332 c 27.47373,-15.88032 50.12536,-28.87331 50.33697,-28.87331 0.2116,0 0.83231,0.47643 1.37937,1.05874 0.97326,1.036 0.99456,1.33832 0.99112,14.06659 l -0.004,13.00785 -1.80254,1.02926 c -2.37034,1.35348 -2.60024,1.31324 -3.21962,-0.56351 -0.28912,-0.87603 -1.41878,-2.51172 -2.51036,-3.63488 -5.44034,-5.5977 -14.38608,-4.08601 -22.18047,3.74815 -5.37934,5.40678 -8.63401,11.71144 -9.74637,18.87978 l -0.581,3.74406 -23.31031,13.47211 c -12.82067,7.40966 -23.37286,13.28446 -23.44931,13.05511 -0.7161,-2.14829 -3.3908,-5.51511 -5.33329,-6.71335 -2.02067,-1.24646 -2.63008,-1.38874 -5.94685,-1.38841 -3.08756,3.1e-4 -4.14408,0.21037 -6.42248,1.27694 -5.36753,2.51265 -10.47315,7.49927 -13.50789,13.19301 l -1.38957,2.6071 -12.31556,7.12896 c -6.77357,3.92093 -12.43167,7.12896 -12.57357,7.12896 -0.14189,0 -0.254,-3.03633 -0.24911,-6.74739 z"
         style="opacity:1;fill:#808080;fill-opacity:0.439216;fill-rule:nonzero;stroke:none;stroke-width:1.3;stroke-miterlimit:4;stroke-dasharray:none;stroke-opacity:1" />
      <path
         transform="translate(11.341822,-19.622642)"
         inkscape:connector-curvature="0"
         id="path4308"
         d="m 232.93834,142.26244 c -1.10229,-4.21426 -2.08318,-7.89243 -2.17977,-8.17371 -0.0966,-0.28129 0.60794,-0.97616 1.5656,-1.54417 l 1.74121,-1.03275 5.83219,6.11867 c 3.20771,3.36527 5.82882,6.2216 5.82468,6.3474 -0.0102,0.30982 -9.8301,5.94685 -10.35964,5.94685 -0.23106,0 -1.32199,-3.44803 -2.42427,-7.66229 z"
         style="opacity:1;fill:#808080;fill-opacity:0.439216;fill-rule:nonzero;stroke:none;stroke-width:1.3;stroke-miterlimit:4;stroke-dasharray:none;stroke-opacity:1" />
      <path
         transform="translate(11.341822,-19.622642)"
         inkscape:connector-curvature="0"
         id="path4310"
         d="m 70.643023,230.07775 -31.21928,-18.16853 -0.0017,-6.79633 c -0.0013,-5.34275 0.123832,-6.74817 0.585196,-6.57113 0.322787,0.12387 12.725403,7.28433 27.561368,15.91213 14.835965,8.62781 28.775692,16.72296 30.977171,17.98922 l 4.002692,2.30229 v 6.76555 c 0,3.72105 -0.15439,6.75875 -0.34309,6.75044 -0.1887,-0.008 -14.391766,-8.19094 -31.562368,-18.18364 z m 28.703303,9.83608 v -2.87326 l -4.231413,-2.47918 c -2.327277,-1.36355 -4.694582,-2.77034 -5.260676,-3.1262 -1.027721,-0.64605 -1.029263,-0.64262 -1.029263,2.2921 v 2.93911 l 5.146314,3.02282 c 2.830472,1.66255 5.197776,3.03971 5.260676,3.06035 0.0629,0.0206 0.114362,-1.25544 0.114362,-2.83574 z m -46.21027,-27.4328 -0.0078,-2.85906 -4.966,-2.85907 c -2.7313,-1.57248 -5.095089,-2.85906 -5.252865,-2.85906 -0.157776,0 -0.286865,1.21783 -0.286865,2.70629 v 2.70628 l 5.146313,3.00516 c 2.830473,1.65283 5.197777,3.00816 5.260676,3.01184 0.0629,0.004 0.110848,-1.2799 0.106552,-2.85238 z"
         style="opacity:1;fill:#808080;fill-opacity:0.439216;fill-rule:nonzero;stroke:none;stroke-width:1.3;stroke-miterlimit:4;stroke-dasharray:none;stroke-opacity:1" />
      <path
         transform="translate(11.341822,-19.622642)"
         inkscape:connector-curvature="0"
         id="path4312"
         d="m 70.755695,240.52923 -22.872504,-13.2162 -0.136798,-3.08035 -0.136798,-3.08036 1.051698,0.68783 c 0.578434,0.3783 5.477528,3.2566 10.886875,6.3962 22.498516,13.05823 33.211028,19.29075 33.96567,19.76118 0.61199,0.38151 0.800537,1.11958 0.800537,3.13371 0,1.44906 -0.154389,2.63005 -0.343087,2.62442 -0.188699,-0.006 -10.635715,-5.95753 -23.215593,-13.22643 z"
         style="opacity:1;fill:#808080;fill-opacity:0.439216;fill-rule:nonzero;stroke:none;stroke-width:1.3;stroke-miterlimit:4;stroke-dasharray:none;stroke-opacity:1" />
      <path
         transform="translate(11.341822,-19.622642)"
         inkscape:connector-curvature="0"
         id="path4314"
         d="m 100.37559,257.62397 c -1.938469,-1.16181 -1.944164,-1.17319 -1.944164,-3.884 0,-1.49532 0.107017,-2.71877 0.237816,-2.71877 0.130798,0 1.057134,0.51721 2.058528,1.14936 1.79194,1.13121 1.82071,1.19264 1.82071,3.88833 0,1.50643 -0.0515,2.73701 -0.11437,2.73463 -0.0629,-0.002 -0.98923,-0.52868 -2.05852,-1.16955 z"
         style="opacity:1;fill:#808080;fill-opacity:0.439216;fill-rule:nonzero;stroke:none;stroke-width:1.3;stroke-miterlimit:4;stroke-dasharray:none;stroke-opacity:1" />
      <path
         transform="translate(11.341822,-19.622642)"
         inkscape:connector-curvature="0"
         id="path4316"
         d="m 41.135802,223.47377 c -1.695695,-0.98286 -1.715438,-1.02749 -1.715438,-3.87782 0,-1.58593 0.107017,-2.88351 0.237815,-2.88351 0.130799,0 1.057135,0.51722 2.058526,1.14937 1.791947,1.1312 1.82071,1.19263 1.82071,3.88832 0,1.50643 -0.15439,2.73424 -0.343088,2.72846 -0.188698,-0.006 -1.115034,-0.45795 -2.058525,-1.00482 z"
         style="opacity:1;fill:#808080;fill-opacity:0.439216;fill-rule:nonzero;stroke:none;stroke-width:1.3;stroke-miterlimit:4;stroke-dasharray:none;stroke-opacity:1" />
      <path
         transform="translate(11.341822,-19.622642)"
         inkscape:connector-curvature="0"
         id="path4318"
         d="m 106.6796,255.98773 0.0141,-2.90801 11.30782,-6.50143 c 6.2193,-3.57579 11.35877,-6.35479 11.42105,-6.17557 0.0623,0.17922 -0.0406,1.52702 -0.22873,2.99511 l -0.34195,2.66927 -10.52135,6.18506 c -5.78675,3.40179 -10.77867,6.28823 -11.09317,6.41432 -0.42234,0.16933 -0.56813,-0.5309 -0.55774,-2.67875 z"
         style="opacity:1;fill:#808080;fill-opacity:0.439216;fill-rule:nonzero;stroke:none;stroke-width:1.3;stroke-miterlimit:4;stroke-dasharray:none;stroke-opacity:1" />
      <path
         transform="translate(11.341822,-19.622642)"
         inkscape:connector-curvature="0"
         id="path4330"
         d="m 138.54239,256.31587 c -3.89033,-1.41104 -5.31997,-4.09555 -5.33471,-10.01724 -0.018,-7.23951 3.46465,-14.84709 9.29261,-20.29886 4.31143,-4.03312 9.16131,-5.91668 12.85048,-4.99076 2.07594,0.52103 4.3149,2.92625 5.06021,5.43597 2.15133,7.24431 -1.13859,17.17337 -8.00044,24.14551 -5.03386,5.11476 -9.95278,7.14551 -13.86815,5.72538 z m 7.23512,-7.52494 c 4.47183,-2.04757 8.97647,-9.17933 9.29722,-14.71937 0.15733,-2.71746 0.0586,-3.13402 -1.05727,-4.46014 -3.79893,-4.51477 -11.95413,1.64031 -14.6583,11.06326 -1.15269,4.01663 -0.24067,7.52374 2.21361,8.51233 1.4814,0.59671 2.18027,0.53088 4.20474,-0.39608 z"
         style="opacity:1;fill:#333333;fill-opacity:1;fill-rule:nonzero;stroke:none;stroke-width:1.3;stroke-miterlimit:4;stroke-dasharray:none;stroke-opacity:1" />
      <path
         transform="translate(11.341822,-19.622642)"
         inkscape:connector-curvature="0"
         id="path4332"
         d="m 220.7136,208.45686 c -1.87243,-0.5744 -4.01206,-3.17705 -4.73523,-5.75995 -0.82115,-2.93288 -0.32489,-8.86349 1.05661,-12.62707 3.34815,-9.1213 10.99772,-16.52364 17.74553,-17.17202 10.58122,-1.01672 11.80802,15.24264 2.08596,27.64617 -4.81185,6.13902 -11.40563,9.36914 -16.15287,7.91287 z m 9.01889,-8.39558 c 2.33381,-1.54444 5.20688,-5.40003 6.62548,-8.89124 4.0383,-9.93831 -2.66185,-15.02739 -9.61007,-7.2993 -3.14381,3.49667 -4.99071,7.64077 -5.19331,11.65277 -0.16222,3.21238 -0.12079,3.36706 1.27606,4.7639 1.27025,1.27025 1.66485,1.41406 3.28414,1.19687 1.01224,-0.13577 2.6402,-0.77612 3.6177,-1.423 z"
         style="opacity:1;fill:#333333;fill-opacity:1;fill-rule:nonzero;stroke:none;stroke-width:1.3;stroke-miterlimit:4;stroke-dasharray:none;stroke-opacity:1" />
    </g>
  </g>
</svg>
